Boxing_Bath_states
version=1
nRows=23
nColumns=7
inDegrees=yes

# SIMM Motion File Header:
name Boxing_Bath_states
datacolumns 7
datarows 23
otherdata 1
range 0.000000 1.000000
endheader
time	r_shoulder_elev	elbow_flex_r	pro_sup_r	r_shoulder_elev_u	elbow_flex_r_u	pro_sup_r_u
      0.00000000	    -64.12222518	      0.00000000	     -0.00000000	    254.00755951	      0.00000000	      0.00000000
      0.01000000	    -61.52236342	      0.00000000	     -0.00000000	    265.91909999	     -0.00000000	      0.00000000
      0.05857552	    -47.28169716	      0.00000000	     -0.00000000	    318.86187331	     -0.00000000	      0.00000000
      0.10715104	    -30.73639861	      0.00000000	     -0.00000000	    359.94903001	     -0.00000000	      0.00000000
      0.15572657	    -12.58598111	      0.00000000	     -0.00000000	    384.19374503	     -0.00000000	      0.00000000
      0.20430209	      6.25694928	      0.00000000	     -0.00000000	    388.09242188	     -0.00000000	      0.00000000
      0.25287761	     24.77613546	      0.00000000	     -0.00000000	    371.04069911	     -0.00000000	     -0.00000000
      0.30145313	     42.00468799	      0.00000000	     -0.00000000	    335.59755494	     -0.00000000	      0.00000000
      0.35002866	     57.15692050	      0.00000000	     -0.00000000	    286.40626794	     -0.00000000	     -0.00000000
      0.39860418	     69.68924865	      0.00000000	     -0.00000000	    228.52103453	     -0.00000000	      0.00000000
      0.44717970	     79.28533881	      0.00000000	     -0.00000000	    166.08651721	     -0.00000000	     -0.00000000
      0.49575522	     85.79557017	      0.00000000	     -0.00000000	    101.79387116	     -0.00000000	     -0.00000000
      0.54433074	     89.16701442	      0.00000000	     -0.00000000	     36.98753850	     -0.00000000	     -0.00000000
      0.59290627	     89.38808171	      0.00000000	     -0.00000000	    -27.88626487	     -0.00000000	     -0.00000000
      0.63440298	     87.08132652	      0.00000000	     -0.00000000	    -83.27818563	     -0.00000000	     -0.00000000
      0.67589970	     82.47935037	      0.00000000	     -0.00000000	   -138.45025708	     -0.00000000	     -0.00000000
      0.71739641	     75.60167043	      0.00000000	     -0.00000000	   -192.81441754	     -0.00000000	     -0.00000000
      0.75889313	     66.50461667	      0.00000000	     -0.00000000	   -245.14998584	     -0.00000000	     -0.00000000
      0.80038984	     55.31116897	      0.00000000	     -0.00000000	   -293.45214111	     -0.00000000	     -0.00000000
      0.84188656	     42.24368089	      0.00000000	     -0.00000000	   -334.96297123	     -0.00000000	     -0.00000000
      0.89553526	     23.15311645	      0.00000000	     -0.00000000	   -373.38071479	     -0.00000000	      0.00000000
      0.94918396	      2.59105117	      0.00000000	     -0.00000000	   -389.00329383	     -0.00000000	      0.00000000
      1.00000000	    -17.04836265	      0.00000000	     -0.00000000	   -380.13272346	     -0.00000000	      0.00000000
